<?xml version="1.0" encoding="UTF-8"?> <svg xmlns="http://www.w3.org/2000/svg" width="141" height="52" viewBox="0 0 141 52" fill="none"> <g clip-path="url(#clip0)"> <path d="M33.9353 26.1176H16.0586L12.2083 34.6892H8.67877L23.3468 2.60289H26.6929L41.361 34.6892H37.7856L33.9353 26.1176ZM32.6977 23.3673L24.997 6.13239L17.2962 23.3673H32.6977ZM49.75 23.6667C50.7956 23.6667 51.7267 23.9031 52.5432 24.3758C53.374 24.8341 54.0186 25.4859 54.477 26.331C54.9353 27.1618 55.1645 28.1144 55.1645 29.1887C55.1645 30.2917 54.921 31.2729 54.434 32.1323C53.9613 32.9775 53.2952 33.6364 52.4358 34.1091C51.5763 34.5818 50.5879 34.8181 49.4706 34.8181C47.5942 34.8181 46.1403 34.1592 45.1089 32.8414C44.0776 31.5236 43.5619 29.7044 43.5619 27.3838C43.5619 24.963 44.0203 23.1081 44.937 21.8189C45.8681 20.5297 47.3148 19.6559 49.2773 19.1975L54.3481 18.0373L54.6059 19.4339L49.8359 20.5297C48.2173 20.8878 47.0284 21.5252 46.2692 22.442C45.51 23.3444 45.0946 24.6837 45.023 26.4599C45.4813 25.5861 46.1188 24.9057 46.9353 24.4187C47.7517 23.9174 48.69 23.6667 49.75 23.6667ZM49.5136 33.5504C50.3015 33.5504 51.0033 33.3714 51.6193 33.0133C52.2496 32.6408 52.7366 32.1252 53.0804 31.4663C53.4385 30.8073 53.6175 30.0625 53.6175 29.2317C53.6175 28.4009 53.4456 27.6703 53.1018 27.0401C52.7581 26.4098 52.271 25.9228 51.6408 25.579C51.0248 25.2209 50.3158 25.0418 49.5136 25.0418C48.7115 25.0418 47.9953 25.2209 47.365 25.579C46.749 25.9228 46.262 26.4098 45.9039 27.0401C45.5601 27.6703 45.3882 28.4009 45.3882 29.2317C45.3882 30.0625 45.5601 30.8073 45.9039 31.4663C46.262 32.1252 46.7562 32.6408 47.3865 33.0133C48.0167 33.3714 48.7258 33.5504 49.5136 33.5504ZM64.2571 23.3014C65.3171 23.3014 66.2769 23.5449 67.1363 24.032C67.9958 24.5047 68.669 25.1779 69.156 26.0517C69.643 26.9255 69.8866 27.921 69.8866 29.0383C69.8866 30.1699 69.643 31.1726 69.156 32.0464C68.669 32.9202 67.9958 33.6006 67.1363 34.0876C66.2912 34.5603 65.3315 34.7966 64.2571 34.7966C63.3404 34.7966 62.5096 34.6104 61.7647 34.238C61.0342 33.8512 60.4326 33.2926 59.9599 32.5621V38.8576H58.4343V23.3874H59.8954V25.622C60.3538 24.8771 60.9554 24.3041 61.7003 23.9031C62.4594 23.502 63.3117 23.3014 64.2571 23.3014ZM64.1497 33.443C64.9375 33.443 65.6537 33.2639 66.2983 32.9058C66.9429 32.5334 67.4443 32.0106 67.8024 31.3373C68.1748 30.6641 68.361 29.8977 68.361 29.0383C68.361 28.1788 68.1748 27.4197 67.8024 26.7607C67.4443 26.0875 66.9429 25.5647 66.2983 25.1922C65.6537 24.8198 64.9375 24.6336 64.1497 24.6336C63.3475 24.6336 62.6242 24.8198 61.9796 25.1922C61.3493 25.5647 60.848 26.0875 60.4755 26.7607C60.1174 27.4197 59.9384 28.1788 59.9384 29.0383C59.9384 29.8977 60.1174 30.6641 60.4755 31.3373C60.848 32.0106 61.3493 32.5334 61.9796 32.9058C62.6242 33.2639 63.3475 33.443 64.1497 33.443ZM76.9903 23.3014C78.4657 23.3014 79.5973 23.6739 80.3852 24.4187C81.173 25.1493 81.5669 26.2379 81.5669 27.6847V34.6892H80.1058V32.9273C79.7621 33.5146 79.2536 33.973 78.5803 34.3025C77.9214 34.6319 77.1336 34.7966 76.2168 34.7966C74.9563 34.7966 73.9536 34.4958 73.2087 33.8942C72.4639 33.2926 72.0914 32.4976 72.0914 31.5092C72.0914 30.5495 72.4352 29.776 73.1228 29.1887C73.8247 28.6014 74.9348 28.3078 76.4532 28.3078H80.0414V27.6202C80.0414 26.6461 79.7692 25.9084 79.2249 25.4071C78.6806 24.8914 77.8856 24.6336 76.8399 24.6336C76.1237 24.6336 75.4361 24.7553 74.7772 24.9989C74.1183 25.228 73.5525 25.5503 73.0798 25.9657L72.3922 24.827C72.9652 24.3399 73.6528 23.9675 74.4549 23.7097C75.2571 23.4375 76.1022 23.3014 76.9903 23.3014ZM76.4532 33.5934C77.3126 33.5934 78.0503 33.4 78.6663 33.0133C79.2822 32.6122 79.7406 32.0392 80.0414 31.2944V29.4465H76.4961C74.5624 29.4465 73.5955 30.1198 73.5955 31.4663C73.5955 32.1252 73.8462 32.648 74.3475 33.0348C74.8488 33.4072 75.5507 33.5934 76.4532 33.5934ZM98.262 23.3874V34.6892H96.8654V25.7509L92.2888 33.3141H91.6012L87.0246 25.7294V34.6892H85.628V23.3874H87.175L91.9665 31.5307L96.8439 23.3874H98.262ZM107.266 34.7966C106.177 34.7966 105.196 34.5531 104.322 34.0661C103.448 33.5648 102.761 32.8772 102.259 32.0034C101.758 31.1296 101.507 30.1413 101.507 29.0383C101.507 27.9353 101.758 26.947 102.259 26.0732C102.761 25.1994 103.448 24.519 104.322 24.032C105.196 23.5449 106.177 23.3014 107.266 23.3014C108.354 23.3014 109.335 23.5449 110.209 24.032C111.083 24.519 111.763 25.1994 112.25 26.0732C112.752 26.947 113.002 27.9353 113.002 29.0383C113.002 30.1413 112.752 31.1296 112.25 32.0034C111.763 32.8772 111.083 33.5648 110.209 34.0661C109.335 34.5531 108.354 34.7966 107.266 34.7966ZM107.266 33.443C108.068 33.443 108.784 33.2639 109.414 32.9058C110.059 32.5334 110.56 32.0106 110.918 31.3373C111.276 30.6641 111.455 29.8977 111.455 29.0383C111.455 28.1788 111.276 27.4125 110.918 26.7393C110.56 26.066 110.059 25.5503 109.414 25.1922C108.784 24.8198 108.068 24.6336 107.266 24.6336C106.463 24.6336 105.74 24.8198 105.096 25.1922C104.465 25.5503 103.964 26.066 103.591 26.7393C103.233 27.4125 103.054 28.1788 103.054 29.0383C103.054 29.8977 103.233 30.6641 103.591 31.3373C103.964 32.0106 104.465 32.5334 105.096 32.9058C105.74 33.2639 106.463 33.443 107.266 33.443ZM123.461 28.8449C124.994 29.203 125.76 30.1269 125.76 31.6167C125.76 32.605 125.395 33.3642 124.664 33.8942C123.934 34.4242 122.845 34.6892 121.398 34.6892H116.263V23.3874H121.248C122.537 23.3874 123.547 23.6381 124.277 24.1394C125.008 24.6407 125.373 25.357 125.373 26.288C125.373 26.904 125.201 27.434 124.857 27.878C124.528 28.3078 124.062 28.6301 123.461 28.8449ZM117.745 28.4152H121.14C122.014 28.4152 122.68 28.2505 123.139 27.921C123.611 27.5915 123.848 27.1117 123.848 26.4814C123.848 25.8511 123.611 25.3784 123.139 25.0633C122.68 24.7482 122.014 24.5906 121.14 24.5906H117.745V28.4152ZM121.334 33.486C122.308 33.486 123.038 33.3284 123.525 33.0133C124.012 32.6981 124.256 32.204 124.256 31.5307C124.256 30.8575 124.034 30.3633 123.59 30.0482C123.146 29.7187 122.444 29.554 121.484 29.554H117.745V33.486H121.334ZM133.224 23.3014C134.7 23.3014 135.831 23.6739 136.619 24.4187C137.407 25.1493 137.801 26.2379 137.801 27.6847V34.6892H136.34V32.9273C135.996 33.5146 135.487 33.973 134.814 34.3025C134.155 34.6319 133.367 34.7966 132.451 34.7966C131.19 34.7966 130.187 34.4958 129.443 33.8942C128.698 33.2926 128.325 32.4976 128.325 31.5092C128.325 30.5495 128.669 29.776 129.357 29.1887C130.059 28.6014 131.169 28.3078 132.687 28.3078H136.275V27.6202C136.275 26.6461 136.003 25.9084 135.459 25.4071C134.914 24.8914 134.119 24.6336 133.074 24.6336C132.358 24.6336 131.67 24.7553 131.011 24.9989C130.352 25.228 129.786 25.5503 129.314 25.9657L128.626 24.827C129.199 24.3399 129.887 23.9675 130.689 23.7097C131.491 23.4375 132.336 23.3014 133.224 23.3014ZM132.687 33.5934C133.546 33.5934 134.284 33.4 134.9 33.0133C135.516 32.6122 135.974 32.0392 136.275 31.2944V29.4465H132.73C130.796 29.4465 129.829 30.1198 129.829 31.4663C129.829 32.1252 130.08 32.648 130.581 33.0348C131.083 33.4072 131.785 33.5934 132.687 33.5934Z" fill="#E76F51"></path> <path d="M27.3078 41.5512H9.7233L6.08351 49.8235H1.2147L16.1993 16.7345H20.879L35.9109 49.8235H30.9475L27.3078 41.5512ZM25.6533 37.7696L18.5155 21.556L11.3778 37.7696H25.6533ZM46.6739 39.9541V49.8235H44.8862V41.5183H40.6405L40.5288 43.7156C40.4667 45.044 40.3488 46.155 40.175 47.0489C40.0012 47.9303 39.7156 48.6379 39.3184 49.1717C38.9211 49.7056 38.3687 49.9725 37.661 49.9725C37.3383 49.9725 36.972 49.9166 36.5624 49.8049L36.6741 48.2965C36.8355 48.3338 36.9845 48.3524 37.121 48.3524C37.6176 48.3524 37.99 48.1351 38.2383 47.7006C38.4866 47.2661 38.648 46.7509 38.7225 46.155C38.797 45.5592 38.8652 44.7088 38.9273 43.6039L39.0949 39.9541H46.6739ZM59.0502 44.9446C59.0502 45.0812 59.0378 45.2612 59.0129 45.4847H51.0057C51.1174 46.3537 51.4961 47.0551 52.1416 47.5889C52.7996 48.1103 53.6127 48.371 54.581 48.371C55.7604 48.371 56.7101 47.9737 57.4301 47.1792L58.4171 48.3338C57.9701 48.8552 57.4115 49.2524 56.7411 49.5255C56.0832 49.7987 55.3445 49.9352 54.5252 49.9352C53.4824 49.9352 52.5575 49.7242 51.7506 49.3021C50.9436 48.8676 50.3167 48.2655 49.8698 47.4958C49.4353 46.7261 49.218 45.8571 49.218 44.8888C49.218 43.9329 49.4291 43.0701 49.8512 42.3004C50.2857 41.5307 50.8753 40.9348 51.6202 40.5127C52.3775 40.0782 53.2279 39.861 54.1714 39.861C55.1148 39.861 55.9528 40.0782 56.6853 40.5127C57.4301 40.9348 58.0074 41.5307 58.4171 42.3004C58.8391 43.0701 59.0502 43.9515 59.0502 44.9446ZM54.1714 41.3693C53.3148 41.3693 52.5947 41.63 52.0113 42.1514C51.4402 42.6728 51.105 43.3556 51.0057 44.1998H57.337C57.2377 43.368 56.8963 42.6914 56.3128 42.17C55.7418 41.6362 55.0279 41.3693 54.1714 41.3693ZM65.6595 45.6523H63.6112V49.8235H61.8235V39.9541H63.6112V44.1253H65.6968L68.8997 39.9541H70.8177L67.0748 44.7026L71.0784 49.8235H68.9742L65.6595 45.6523ZM76.927 49.9352C75.9214 49.9352 75.0214 49.718 74.2269 49.2835C73.4448 48.849 72.8303 48.2531 72.3833 47.4958C71.9364 46.7261 71.713 45.8571 71.713 44.8888C71.713 43.9205 71.9364 43.0577 72.3833 42.3004C72.8303 41.5307 73.4448 40.9348 74.2269 40.5127C75.0214 40.0782 75.9214 39.861 76.927 39.861C77.8208 39.861 78.6153 40.041 79.3106 40.401C80.0182 40.761 80.5644 41.2824 80.9492 41.9652L79.5899 42.8404C79.2795 42.3687 78.8947 42.0149 78.4353 41.779C77.976 41.5431 77.467 41.4252 76.9084 41.4252C76.2628 41.4252 75.6794 41.5679 75.158 41.8535C74.649 42.139 74.2455 42.5487 73.9476 43.0825C73.662 43.6039 73.5193 44.206 73.5193 44.8888C73.5193 45.584 73.662 46.1985 73.9476 46.7323C74.2455 47.2537 74.649 47.6572 75.158 47.9427C75.6794 48.2282 76.2628 48.371 76.9084 48.371C77.467 48.371 77.976 48.2531 78.4353 48.0172C78.8947 47.7813 79.2795 47.4275 79.5899 46.9558L80.9492 47.8124C80.5644 48.4952 80.0182 49.0228 79.3106 49.3952C78.6153 49.7552 77.8208 49.9352 76.927 49.9352ZM86.7832 39.861C88.1487 39.861 89.1915 40.1962 89.9116 40.8665C90.644 41.5369 91.0102 42.5363 91.0102 43.8646V49.8235H89.3157V48.52C89.0177 48.9793 88.5894 49.3331 88.0308 49.5814C87.4846 49.8173 86.8328 49.9352 86.0755 49.9352C84.9707 49.9352 84.083 49.6683 83.4127 49.1345C82.7547 48.6007 82.4257 47.8993 82.4257 47.0303C82.4257 46.1613 82.7423 45.4661 83.3754 44.9446C84.0086 44.4108 85.0141 44.1439 86.3921 44.1439H89.2226V43.7901C89.2226 43.0204 88.9991 42.4307 88.5522 42.0211C88.1053 41.6114 87.4473 41.4066 86.5783 41.4066C85.9948 41.4066 85.4238 41.5059 84.8651 41.7045C84.3065 41.8907 83.8348 42.1452 83.4499 42.468L82.705 41.1272C83.214 40.7176 83.8223 40.4072 84.53 40.1962C85.2376 39.9727 85.9886 39.861 86.7832 39.861ZM86.3735 48.5572C87.0563 48.5572 87.646 48.4083 88.1425 48.1103C88.6391 47.7999 88.9991 47.3654 89.2226 46.8068V45.4288H86.4666C84.952 45.4288 84.1948 45.9378 84.1948 46.9558C84.1948 47.4523 84.3872 47.8434 84.772 48.1289C85.1569 48.4145 85.6907 48.5572 86.3735 48.5572ZM94.2293 39.9541H96.017V44.1439H101.641V39.9541H103.428V49.8235H101.641V45.6895H96.017V49.8235H94.2293V39.9541ZM116.941 48.2593V52.1139H115.265V49.8235H107.016V52.1139H105.321V48.2593H105.843C106.476 48.222 106.911 47.7751 107.146 46.9185C107.382 46.0619 107.544 44.8515 107.631 43.2873L107.78 39.9541H115.433V48.2593H116.941ZM109.269 43.4177C109.22 44.6591 109.114 45.6895 108.953 46.5089C108.804 47.3158 108.524 47.8993 108.115 48.2593H113.645V41.5183H109.362L109.269 43.4177ZM124.503 39.861C125.459 39.861 126.315 40.072 127.073 40.4941C127.83 40.9162 128.42 41.5059 128.842 42.2631C129.276 43.0204 129.493 43.8956 129.493 44.8888C129.493 45.8819 129.276 46.7633 128.842 47.533C128.42 48.2903 127.83 48.88 127.073 49.3021C126.315 49.7242 125.459 49.9352 124.503 49.9352C123.795 49.9352 123.143 49.7987 122.548 49.5255C121.964 49.2524 121.467 48.8552 121.058 48.3338V53.4361H119.27V39.9541H120.983V41.5183C121.381 40.9721 121.883 40.5624 122.492 40.2893C123.1 40.0037 123.77 39.861 124.503 39.861ZM124.354 48.371C124.987 48.371 125.552 48.2282 126.048 47.9427C126.557 47.6448 126.955 47.2351 127.24 46.7137C127.538 46.1799 127.687 45.5716 127.687 44.8888C127.687 44.206 127.538 43.6039 127.24 43.0825C126.955 42.5487 126.557 42.139 126.048 41.8535C125.552 41.5679 124.987 41.4252 124.354 41.4252C123.733 41.4252 123.168 41.5742 122.659 41.8721C122.163 42.1576 121.765 42.5611 121.467 43.0825C121.182 43.6039 121.039 44.206 121.039 44.8888C121.039 45.5716 121.182 46.1799 121.467 46.7137C121.753 47.2351 122.15 47.6448 122.659 47.9427C123.168 48.2282 123.733 48.371 124.354 48.371ZM135.519 39.861C136.885 39.861 137.928 40.1962 138.648 40.8665C139.38 41.5369 139.746 42.5363 139.746 43.8646V49.8235H138.052V48.52C137.754 48.9793 137.325 49.3331 136.767 49.5814C136.221 49.8173 135.569 49.9352 134.812 49.9352C133.707 49.9352 132.819 49.6683 132.149 49.1345C131.491 48.6007 131.162 47.8993 131.162 47.0303C131.162 46.1613 131.478 45.4661 132.111 44.9446C132.745 44.4108 133.75 44.1439 135.128 44.1439H137.959V43.7901C137.959 43.0204 137.735 42.4307 137.288 42.0211C136.841 41.6114 136.183 41.4066 135.314 41.4066C134.731 41.4066 134.16 41.5059 133.601 41.7045C133.043 41.8907 132.571 42.1452 132.186 42.468L131.441 41.1272C131.95 40.7176 132.558 40.4072 133.266 40.1962C133.974 39.9727 134.725 39.861 135.519 39.861ZM135.11 48.5572C135.792 48.5572 136.382 48.4083 136.879 48.1103C137.375 47.7999 137.735 47.3654 137.959 46.8068V45.4288H135.203C133.688 45.4288 132.931 45.9378 132.931 46.9558C132.931 47.4523 133.123 47.8434 133.508 48.1289C133.893 48.4145 134.427 48.5572 135.11 48.5572Z" fill="#264653"></path> <path d="M64.9229 8.82933L63.3262 13.647H62.3765L61.1858 10.0819L59.9745 13.647H59.0179L57.4212 8.82933H58.3503L59.5478 12.4907L60.7935 8.82933H61.6194L62.8376 12.5114L64.0695 8.82933H64.9229ZM69.2651 12.8968V13.647H65.6518V8.82933H69.1687V9.5795H66.5465V10.8321H68.8728V11.5685H66.5465V12.8968H69.2651ZM73.6761 11.1418C73.9422 11.229 74.1533 11.3758 74.3093 11.5823C74.4653 11.7841 74.5433 12.0365 74.5433 12.3393C74.5433 12.7569 74.3827 13.0803 74.0615 13.3097C73.7403 13.5346 73.2723 13.647 72.6575 13.647H70.2625V8.82933H72.5199C73.0888 8.82933 73.527 8.94174 73.8344 9.16656C74.1418 9.3868 74.2955 9.69191 74.2955 10.0819C74.2955 10.3205 74.2405 10.5316 74.1303 10.7151C74.0202 10.8986 73.8688 11.0409 73.6761 11.1418ZM71.1572 9.53133V10.8596H72.4235C72.7355 10.8596 72.9741 10.8046 73.1393 10.6944C73.3091 10.5797 73.3939 10.4146 73.3939 10.1989C73.3939 9.97868 73.3091 9.8135 73.1393 9.70338C72.9741 9.58868 72.7355 9.53133 72.4235 9.53133H71.1572ZM72.6025 12.945C73.2953 12.945 73.6417 12.7133 73.6417 12.2499C73.6417 11.7864 73.2953 11.5547 72.6025 11.5547H71.1572V12.945H72.6025ZM75.2297 11.3758H77.1224V12.0916H75.2297V11.3758ZM82.9165 12.8899V14.6724H82.0906V13.647H78.3948V14.6724H77.5621L77.5689 12.8899H77.7754C78.0782 12.8761 78.2893 12.6536 78.4086 12.2223C78.5325 11.7864 78.6082 11.1647 78.6357 10.3572L78.6908 8.82933H82.2214V12.8899H82.9165ZM79.4203 10.4398C79.3974 11.0638 79.3469 11.5846 79.2689 12.0021C79.1909 12.415 79.067 12.711 78.8972 12.8899H81.3405V9.58638H79.4547L79.4203 10.4398ZM83.7659 8.82933H84.6468V12.2499L87.2346 8.82933H88.0673V13.647H87.1864V10.2333L84.5986 13.647H83.7659V8.82933ZM91.9508 11.1349C92.2399 11.2267 92.4647 11.3758 92.6253 11.5823C92.7904 11.7841 92.873 12.0227 92.873 12.298C92.873 12.5871 92.779 12.8394 92.5909 13.0551C92.4027 13.2661 92.1504 13.429 91.8338 13.5437C91.5218 13.6584 91.18 13.7158 90.8083 13.7158C90.4872 13.7158 90.1637 13.6722 89.8379 13.585C89.5167 13.4933 89.2185 13.3579 88.9432 13.179L89.2323 12.5251C89.4433 12.6674 89.6773 12.7775 89.9343 12.8555C90.1912 12.9289 90.4459 12.9656 90.6982 12.9656C91.0607 12.9656 91.3612 12.8945 91.5998 12.7523C91.843 12.61 91.9646 12.415 91.9646 12.1673C91.9646 11.9562 91.8774 11.7956 91.703 11.6855C91.5287 11.5754 91.2878 11.5203 90.9804 11.5203H89.8586V10.8183H90.9116C91.1777 10.8183 91.3864 10.7633 91.5379 10.6531C91.6893 10.543 91.765 10.3939 91.765 10.2058C91.765 9.98097 91.6617 9.80662 91.4553 9.68274C91.2534 9.55885 90.9942 9.49691 90.6776 9.49691C90.4619 9.49691 90.2394 9.52903 90.01 9.59327C89.7806 9.65291 89.5649 9.74238 89.363 9.86168L89.0809 9.13903C89.3286 9.00597 89.5902 8.90733 89.8654 8.84309C90.1453 8.77427 90.4229 8.73985 90.6982 8.73985C91.0561 8.73985 91.3842 8.79491 91.6824 8.90503C91.9852 9.01515 92.2261 9.17344 92.405 9.37991C92.584 9.5818 92.6734 9.82038 92.6734 10.0957C92.6734 10.3343 92.6092 10.543 92.4807 10.722C92.3523 10.9009 92.1756 11.0386 91.9508 11.1349ZM97.081 12.532H94.6722L94.1973 13.647H93.2751L95.443 8.82933H96.3239L98.4988 13.647H97.5628L97.081 12.532ZM96.7851 11.83L95.8766 9.72403L94.975 11.83H96.7851ZM99.2444 8.82933H100.125V12.2499L102.713 8.82933H103.546V13.647H102.665V10.2333L100.077 13.647H99.2444V8.82933ZM101.385 8.50585C100.972 8.50585 100.66 8.42097 100.449 8.25121C100.242 8.08144 100.137 7.83368 100.132 7.50791H100.759C100.763 7.67768 100.818 7.80844 100.924 7.90021C101.029 7.99197 101.183 8.03785 101.385 8.03785C101.582 8.03785 101.736 7.99197 101.846 7.90021C101.961 7.80844 102.02 7.67768 102.025 7.50791H102.644C102.64 7.82909 102.53 8.07685 102.314 8.25121C102.103 8.42097 101.793 8.50585 101.385 8.50585ZM109.177 8.82933V13.647H108.283V11.5823H105.791V13.647H104.897V8.82933H105.791V10.8183H108.283V8.82933H109.177ZM116.017 13.7227L115.411 13.1377C114.961 13.5231 114.422 13.7158 113.794 13.7158C113.459 13.7158 113.158 13.6607 112.892 13.5506C112.626 13.4405 112.417 13.2891 112.266 13.0964C112.114 12.8991 112.039 12.6766 112.039 12.4288C112.039 12.1306 112.126 11.869 112.3 11.6442C112.475 11.4148 112.759 11.19 113.154 10.9697C112.961 10.777 112.823 10.5981 112.741 10.4329C112.658 10.2631 112.617 10.0888 112.617 9.90985C112.617 9.57033 112.743 9.29733 112.995 9.09085C113.252 8.8798 113.592 8.77427 114.014 8.77427C114.404 8.77427 114.716 8.87062 114.95 9.06333C115.184 9.25144 115.301 9.50838 115.301 9.83415C115.301 10.0819 115.223 10.3021 115.067 10.4949C114.915 10.6876 114.665 10.8826 114.317 11.0799L115.356 12.0709C115.471 11.8461 115.56 11.5754 115.624 11.2588L116.319 11.4859C116.228 11.9126 116.083 12.2797 115.886 12.5871L116.492 13.1652L116.017 13.7227ZM114.014 9.3868C113.826 9.3868 113.677 9.43497 113.567 9.53133C113.456 9.62309 113.401 9.74468 113.401 9.89609C113.401 10.0062 113.431 10.1117 113.491 10.2127C113.55 10.309 113.665 10.4421 113.835 10.6119C114.11 10.4604 114.301 10.3297 114.406 10.2196C114.516 10.1049 114.571 9.98097 114.571 9.84791C114.571 9.70568 114.521 9.59327 114.42 9.51068C114.324 9.42809 114.188 9.3868 114.014 9.3868ZM113.856 13.0138C114.255 13.0138 114.603 12.8922 114.902 12.649L113.628 11.4309C113.353 11.5823 113.158 11.7291 113.043 11.8713C112.933 12.009 112.878 12.165 112.878 12.3393C112.878 12.5412 112.968 12.7041 113.147 12.828C113.326 12.9519 113.562 13.0138 113.856 13.0138ZM120.142 9.58638H118.545V8.82933H122.634V9.58638H121.037V13.647H120.142V9.58638ZM123.305 8.82933H124.2V13.647H123.305V8.82933ZM125.503 8.82933H126.397V12.8899H128.916V13.647H125.503V8.82933ZM129.623 8.82933H131.729C132.243 8.82933 132.699 8.93027 133.098 9.13215C133.498 9.32944 133.807 9.61162 134.027 9.97868C134.248 10.3411 134.358 10.761 134.358 11.2381C134.358 11.7153 134.248 12.1374 134.027 12.5045C133.807 12.867 133.498 13.1491 133.098 13.351C132.699 13.5483 132.243 13.647 131.729 13.647H129.623V8.82933ZM131.687 12.8899C132.041 12.8899 132.35 12.8234 132.617 12.6903C132.887 12.5527 133.094 12.36 133.236 12.1122C133.383 11.8599 133.456 11.5685 133.456 11.2381C133.456 10.9078 133.383 10.6187 133.236 10.371C133.094 10.1186 132.887 9.92591 132.617 9.79286C132.35 9.65521 132.041 9.58638 131.687 9.58638H130.517V12.8899H131.687ZM138.366 12.532H135.957L135.482 13.647H134.56L136.728 8.82933H137.609L139.784 13.647H138.848L138.366 12.532ZM138.07 11.83L137.162 9.72403L136.26 11.83H138.07Z" fill="#264653"></path> </g> <defs> <clipPath id="clip0"> <rect width="140" height="52" fill="white" transform="translate(0.647461)"></rect> </clipPath> </defs> </svg> 